<svg xmlns="http://www.w3.org/2000/svg" width="120" height="120" viewBox="0 0 120 120">
  <!-- Cute pixel-style flowers: center + 5 petals -->
  <g fill="rgba(190,24,93,0.12)">
    <circle cx="20" cy="20" r="6"/>
    <circle cx="20" cy="20" r="3"/>
    <circle cx="12" cy="16" r="4"/>
    <circle cx="28" cy="16" r="4"/>
    <circle cx="12" cy="24" r="4"/>
    <circle cx="28" cy="24" r="4"/>
    <circle cx="16" cy="12" r="4"/>
    <circle cx="24" cy="12" r="4"/>
  </g>
  <g fill="rgba(22,101,52,0.1)">
    <rect x="18" y="26" width="4" height="8" rx="1"/>
  </g>
  <g fill="rgba(190,24,93,0.1)">
    <circle cx="70" cy="70" r="5"/>
    <circle cx="70" cy="70" r="2"/>
    <circle cx="64" cy="67" r="3"/>
    <circle cx="76" cy="67" r="3"/>
    <circle cx="64" cy="73" r="3"/>
    <circle cx="76" cy="73" r="3"/>
  </g>
  <g fill="rgba(190,24,93,0.08)">
    <circle cx="100" cy="30" r="4"/>
    <circle cx="100" cy="30" r="2"/>
    <circle cx="96" cy="26" r="2.5"/>
    <circle cx="104" cy="26" r="2.5"/>
    <circle cx="96" cy="34" r="2.5"/>
    <circle cx="104" cy="34" r="2.5"/>
  </g>
</svg>
